<svg width="169" height="56" viewBox="0 0 169 56" fill="none" xmlns="http://www.w3.org/2000/svg">
<path d="M45.4112 30.5804L43.5778 33.3637H35.485V22.5322H38.3211V30.5804H45.4112Z" fill="#F77A5A"/>
<path d="M57.0007 30.5804L55.1797 33.3637H46.3593V22.5322H56.9737L55.1378 25.3504H49.2076V26.6435H56.4699L54.8405 29.1072H49.2076V30.5804H57.0007Z" fill="#F77A5A"/>
<path d="M63.1055 30.5804H66.2512C66.5486 30.5804 66.8067 30.5804 67.0254 30.6123C66.8976 30.4176 66.7501 30.1707 66.5805 29.8744C66.411 29.5779 66.2512 29.2933 66.089 29.0405L64.4474 26.1757L56.7895 33.3639L62.6656 23.5695C62.8706 23.2426 63.1197 22.958 63.4029 22.7269C63.729 22.4655 64.1176 22.3351 64.5113 22.3549C64.8906 22.3389 65.2651 22.4594 65.5852 22.7006C65.8747 22.9347 66.1246 23.2302 66.3226 23.5724L72.0463 33.3667L63.1055 30.5804Z" fill="#F77A5A"/>
<path d="M86.0506 33.3637H82.2561L80.2162 30.4989H75.8614V33.3637H73.0254V27.826H80.9978C81.3852 27.8408 81.7688 27.7292 82.1061 27.5034C82.2436 27.4183 82.3587 27.2901 82.4384 27.1327C82.5182 26.9754 82.5597 26.7949 82.5583 26.6114C82.5669 26.4248 82.5334 26.2388 82.4613 26.0724C82.3891 25.906 82.281 25.7652 82.148 25.6642C81.7975 25.433 81.3985 25.3241 80.9978 25.3504H73.0254L74.8759 22.5322H80.7742C81.3154 22.5337 81.8556 22.5901 82.3888 22.7006C82.9201 22.8055 83.4337 23.0105 83.9101 23.308C84.3595 23.5929 84.7466 23.9977 85.0406 24.4905C85.3484 25.0594 85.4987 25.7277 85.4706 26.4022C85.4729 26.8094 85.4172 27.2141 85.306 27.5993C85.1993 27.9687 85.0396 28.3136 84.8341 28.6192C84.6235 28.9269 84.3679 29.1878 84.0796 29.3891C83.7692 29.6058 83.429 29.7562 83.0745 29.8336C83.2293 29.9759 83.4013 30.1532 83.593 30.3682C83.7846 30.5833 84.0403 30.8825 84.3623 31.2602L86.0506 33.3637Z" fill="#F77A5A"/>
<path d="M96.3499 33.541C96.136 33.5476 95.9233 33.4991 95.7269 33.3987C95.5303 33.2984 95.3547 33.1486 95.2121 32.9599L89.5965 27.0008V33.3638H87.0233V24.3771C87.0165 24.0631 87.0607 23.7504 87.1536 23.4561C87.2271 23.2182 87.3438 23.002 87.4952 22.8227C87.6342 22.6621 87.8023 22.5408 87.9867 22.4683C88.1743 22.393 88.371 22.3548 88.5692 22.3549C88.7489 22.3562 88.9273 22.3915 89.0975 22.4595C89.3258 22.5683 89.533 22.7304 89.7071 22.936L95.3227 28.8951V22.5322H97.9105V31.5013C97.9162 31.8163 97.8721 32.1297 97.7802 32.4254C97.7048 32.6638 97.5885 32.8815 97.4386 33.0645C97.3016 33.2302 97.1331 33.3547 96.9471 33.4277C96.7547 33.5039 96.5529 33.5423 96.3499 33.541Z" fill="#F77A5A"/>
<path d="M116.207 22.5322L114.371 25.3504H111.1V33.3637H108.264V25.3504H103.963L105.799 22.5322H116.207Z" fill="#F77A5A"/>
<path d="M122.179 22.3549C124.406 22.3549 126.08 22.8024 127.201 23.6972C128.321 24.5921 128.88 26.0061 128.877 27.9393C128.877 29.8763 128.32 31.2961 127.205 32.1987C126.092 33.1013 124.416 33.5487 122.179 33.5411C119.934 33.5411 118.256 33.0936 117.147 32.1987C116.038 31.3038 115.483 29.884 115.483 27.9393C115.483 26.0023 116.04 24.5883 117.154 23.6972C118.268 22.8062 119.944 22.3588 122.179 22.3549ZM122.179 30.7256C122.784 30.7322 123.388 30.6973 123.989 30.621C124.406 30.5796 124.813 30.4424 125.186 30.2171C125.48 30.0283 125.715 29.7302 125.852 29.3687C126.123 28.4519 126.123 27.4528 125.852 26.5359C125.716 26.175 125.481 25.8783 125.186 25.6933C124.813 25.4656 124.406 25.3246 123.989 25.2779C122.785 25.1344 121.572 25.1344 120.369 25.2779C119.951 25.3209 119.546 25.458 119.172 25.6817C118.877 25.8657 118.642 26.1628 118.508 26.5243C118.233 27.4406 118.233 28.4409 118.508 29.3572C118.644 29.719 118.878 30.0175 119.172 30.2055C119.544 30.4348 119.95 30.5759 120.369 30.621C120.971 30.6973 121.575 30.7323 122.179 30.7256Z" fill="#F77A5A"/>
<path d="M144.75 29.3453C144.548 28.924 144.376 28.552 144.229 28.2353C144.081 27.9186 143.951 27.631 143.833 27.3637C143.715 27.0964 143.612 26.8814 143.523 26.678C143.435 26.4746 143.354 26.2713 143.277 26.0766C143.204 26.2713 143.125 26.4717 143.032 26.678C142.938 26.8843 142.843 27.111 142.729 27.3637C142.617 27.6165 142.484 27.9013 142.339 28.2151C142.194 28.5289 142.019 28.895 141.818 29.3163L140.343 32.3931C140.191 32.7222 139.978 33.007 139.722 33.2269C139.444 33.4447 139.115 33.5545 138.782 33.5407C138.436 33.5454 138.098 33.418 137.817 33.1775C137.507 32.8973 137.287 32.5008 137.193 32.0532L134.868 22.5319H137.703L138.566 26.309C138.711 26.9251 138.831 27.4654 138.927 27.9303C139.023 28.3922 139.11 28.8485 139.174 29.2901C139.321 28.9027 139.493 28.4843 139.687 28.0349C139.882 27.5856 140.14 27.0045 140.461 26.2917L141.69 23.5721C141.786 23.3411 141.904 23.1253 142.046 22.9299C142.154 22.7853 142.281 22.6627 142.422 22.5668C142.552 22.4813 142.694 22.4242 142.84 22.3983C142.994 22.3696 143.149 22.3559 143.304 22.3576C143.469 22.3549 143.633 22.3686 143.796 22.3983C143.942 22.424 144.083 22.4812 144.212 22.5668C144.354 22.6645 144.485 22.787 144.597 22.9299C144.741 23.1242 144.862 23.3401 144.959 23.5721L146.188 26.3061C146.362 26.6838 146.512 27.018 146.64 27.3027C146.767 27.5875 146.885 27.849 146.981 28.0814C147.076 28.3138 147.171 28.526 147.249 28.7206L147.475 29.3017C147.549 28.8688 147.638 28.4155 147.744 27.9419C147.848 27.4683 147.969 26.9251 148.105 26.3207L148.969 22.5436H151.734L149.367 32.0532C149.274 32.5004 149.055 32.8969 148.746 33.1775C148.465 33.4174 148.126 33.5445 147.78 33.5407C147.453 33.5578 147.129 33.4564 146.854 33.2502C146.591 33.0281 146.374 32.7404 146.217 32.4076L144.75 29.3453Z" fill="#F77A5A"/>
<path d="M155.693 33.3637H152.857V22.5322H155.693V33.3637Z" fill="#F77A5A"/>
<path d="M166.745 33.541C166.562 33.5409 166.379 33.5055 166.205 33.4364C165.979 33.3303 165.776 33.1678 165.608 32.9599L159.992 27.0008V33.3638H157.419V24.3771C157.412 24.0631 157.456 23.7504 157.549 23.4561C157.623 23.2182 157.74 23.002 157.891 22.8227C158.029 22.6624 158.198 22.5412 158.382 22.4683C158.569 22.3928 158.765 22.3545 158.962 22.3549C159.142 22.3559 159.32 22.3913 159.491 22.4595C159.719 22.5683 159.926 22.7304 160.1 22.936L165.716 28.8951V22.5322H168.303V31.5013C168.31 31.8163 168.265 32.1297 168.173 32.4254C168.099 32.6645 167.982 32.8823 167.832 33.0645C167.695 33.2302 167.526 33.3547 167.34 33.4277C167.149 33.5035 166.947 33.5419 166.745 33.541Z" fill="#F77A5A"/>
<path fill-rule="evenodd" clip-rule="evenodd" d="M31.3563 8.27779C32.2509 7.75481 33.2413 7.15047 34.1777 6.63329C34.4894 6.37695 34.7719 6.07423 35.0181 5.7326C36.2469 3.97478 37.3946 2.3942 38.7046 0.650922C39.0486 0.223817 39.2133 -0.0899746 39.0339 0.023339C38.1443 0.499838 37.5052 0.799101 36.7729 1.18553C36.4155 1.46554 36.0857 1.79201 35.7898 2.15887C34.2121 4.12586 32.7498 5.99119 31.3662 7.82164C31.0836 8.23712 31.1007 8.43469 31.3268 8.2807L31.3563 8.27779Z" fill="#F77A5A"/>
<path fill-rule="evenodd" clip-rule="evenodd" d="M27.151 10.8725C28.0063 10.3408 28.9008 9.8178 29.7782 9.26576C30.1427 8.99408 30.4617 8.64542 30.7194 8.23722C32.1399 6.36319 33.7202 4.39618 35.2292 2.4931C35.6445 2.00498 35.7378 1.74348 35.5806 1.84517C34.8433 2.27519 34.2683 2.56282 33.553 2.9725C33.1592 3.28566 32.7934 3.64589 32.4619 4.04752C30.7022 6.12784 28.891 8.29823 27.2591 10.3524C26.9126 10.7795 26.9298 10.9771 27.151 10.8725Z" fill="#F77A5A"/>
<path fill-rule="evenodd" clip-rule="evenodd" d="M23.0079 13.4525C23.9565 12.8395 24.7896 12.3281 25.6916 11.7586C25.8882 11.6715 26.2151 11.2153 26.5837 10.7679C28.2622 8.673 30.1374 6.49099 31.9192 4.3758C32.2657 3.94869 32.563 3.56228 32.4107 3.65525C31.8356 3.94579 31.0049 4.45425 30.4692 4.75061C30.0442 5.1105 29.6463 5.51293 29.2797 5.95348C27.1883 8.33306 25.1853 10.5412 23.2929 12.8191C22.8777 13.3073 22.8015 13.5861 23.003 13.4525H23.0079Z" fill="#F77A5A"/>
<path fill-rule="evenodd" clip-rule="evenodd" d="M27.0777 15.4338C28.137 14.7685 29.1323 14.1176 30.162 13.5191C30.4586 13.2886 30.7148 12.9927 30.9165 12.6474C31.7496 11.1598 32.7008 9.57051 33.5806 8.03932C33.8263 7.66742 33.7993 7.45823 33.5806 7.62093C32.6614 8.16716 31.6563 8.74245 30.6904 9.32644C30.3713 9.57682 30.0917 9.89151 29.8647 10.2562C28.916 11.8455 27.8297 13.5104 26.9451 15.088C26.7558 15.4192 26.859 15.5849 27.0852 15.4309L27.0777 15.4338Z" fill="#F77A5A"/>
<path fill-rule="evenodd" clip-rule="evenodd" d="M22.4819 18.3252C23.4944 17.7005 24.4897 17.0467 25.4851 16.3959C25.7838 16.1856 26.0364 15.8949 26.2224 15.5475C27.085 13.9902 28.1417 12.3951 29.1444 10.7157C29.3558 10.3612 29.3901 10.152 29.1592 10.277C28.2868 10.7825 27.2914 11.4392 26.3969 11.9564C26.0714 12.2353 25.7838 12.5714 25.544 12.9529C24.4356 14.6382 23.3518 16.303 22.418 17.9212C22.2066 18.2729 22.2852 18.4588 22.4892 18.3252H22.4819Z" fill="#F77A5A"/>
<path fill-rule="evenodd" clip-rule="evenodd" d="M18.0631 20.9778C18.9994 20.4607 19.9873 19.8564 20.936 19.2346C21.2445 19.019 21.499 18.7101 21.6733 18.3397C22.6219 16.7505 23.7524 15.0449 24.8682 13.3627C25.1261 12.9675 25.1336 12.7495 24.9296 12.8832C24.0056 13.4644 23.1724 13.9844 22.2262 14.5975C21.8739 14.8696 21.563 15.2105 21.3071 15.6057C20.1815 17.224 19.0216 18.9963 17.9845 20.6292C17.7386 21.0041 17.8345 21.1406 18.0631 20.9866V20.9778Z" fill="#F77A5A"/>
<path fill-rule="evenodd" clip-rule="evenodd" d="M28.9719 18.7141C30.009 18.0672 31.0649 17.4464 32.1397 16.8517C32.4412 16.6455 32.6946 16.354 32.8771 16.0033C33.5062 14.6494 34.1992 13.2808 34.8308 11.9357C34.9955 11.6248 34.8922 11.4592 34.649 11.5841C33.5774 12.1652 32.4862 12.787 31.4541 13.3827C31.145 13.5941 30.8857 13.8939 30.6996 14.2543C30.041 15.675 29.4339 17.0086 28.8269 18.3451C28.7016 18.6647 28.7408 18.842 28.9842 18.717L28.9719 18.7141Z" fill="#F77A5A"/>
<path fill-rule="evenodd" clip-rule="evenodd" d="M24.3847 21.5561C25.3677 20.9518 26.3679 20.298 27.3338 19.6675C27.6352 19.4613 27.8886 19.1698 28.0711 18.8192C28.6609 17.4565 29.2261 16.1171 29.9044 14.7195C30.0691 14.4086 29.988 14.2227 29.7619 14.3767C28.6806 15.0624 27.6901 15.6667 26.6776 16.2914C26.3846 16.5104 26.1401 16.8093 25.9649 17.1631C25.3112 18.5373 24.7631 19.9087 24.22 21.2306C24.0726 21.5736 24.1586 21.7101 24.3847 21.5561Z" fill="#F77A5A"/>
<path fill-rule="evenodd" clip-rule="evenodd" d="M19.9502 24.3047C20.8767 23.7236 21.8401 23.128 22.8059 22.544C23.071 22.3356 23.2915 22.0571 23.4498 21.7305C23.9758 20.3795 24.5902 18.9993 25.1702 17.6832C25.3422 17.3228 25.2562 17.1863 25.0276 17.3403C24.0446 17.9446 23.0738 18.5286 22.0564 19.2027C21.7728 19.4149 21.5367 19.705 21.3683 20.0482C20.8079 21.3411 20.2181 22.7038 19.7216 23.9851C19.6209 24.2757 19.6824 24.4413 19.9502 24.296V24.3047Z" fill="#F77A5A"/>
<path fill-rule="evenodd" clip-rule="evenodd" d="M15.544 26.8615C16.4779 26.3444 17.4438 25.7603 18.3875 25.1967C18.6605 25.019 18.8777 24.7418 19.0068 24.4065C19.4983 23.1251 20.0636 21.8322 20.6535 20.4695C20.8181 20.1557 20.7566 19.9988 20.5109 20.1238C19.5696 20.7049 18.5743 21.3411 17.6158 21.867C17.3293 22.0796 17.092 22.3733 16.9253 22.7213C16.3403 24.0346 15.8046 25.3071 15.2909 26.5623C15.1902 26.8528 15.2909 26.9778 15.5367 26.8528L15.544 26.8615Z" fill="#F77A5A"/>
<path fill-rule="evenodd" clip-rule="evenodd" d="M27.1685 24.1884C28.1122 23.6072 29.0535 23.0582 30.0365 22.5031C30.2938 22.3182 30.5011 22.05 30.6337 21.7303C31.0588 20.5101 31.5086 19.2694 32.0075 17.988C32.1303 17.6684 32.0444 17.529 31.801 17.6569C30.7492 18.2758 29.6949 18.8859 28.6995 19.496C28.4034 19.6772 28.1703 19.9753 28.0409 20.3386C27.6133 21.559 27.2742 22.7473 26.9178 23.9065C26.8563 24.1971 26.9645 24.3307 27.1636 24.1971L27.1685 24.1884Z" fill="#F77A5A"/>
<path fill-rule="evenodd" clip-rule="evenodd" d="M22.9808 26.8093L25.6842 25.095C25.9308 24.9456 26.1191 24.6897 26.2101 24.3802C26.532 23.1687 26.913 21.989 27.2988 20.76C27.3996 20.4695 27.3135 20.3242 27.0531 20.4985C26.07 21.1028 25.0698 21.7537 24.1039 22.3407C23.8624 22.5277 23.6673 22.7874 23.5387 23.0931C23.2168 24.3076 22.9464 25.4176 22.6761 26.5594C22.6219 26.818 22.7719 26.9429 22.9759 26.8093H22.9808Z" fill="#F77A5A"/>
<path fill-rule="evenodd" clip-rule="evenodd" d="M18.8694 29.2725C19.7665 28.7495 20.6439 28.1974 21.5385 27.6744C21.7602 27.5158 21.9254 27.2668 22.0029 26.9743C22.2487 25.8702 22.4944 24.7138 22.8335 23.5777C22.8877 23.3162 22.7623 23.171 22.5362 23.3279C21.5704 23.909 20.6217 24.522 19.7027 25.0711C19.445 25.2218 19.2474 25.4857 19.1522 25.8062C18.9063 26.9103 18.7245 28.0028 18.5721 29.0284C18.5156 29.287 18.6483 29.3859 18.8694 29.2784V29.2725Z" fill="#F77A5A"/>
<path fill-rule="evenodd" clip-rule="evenodd" d="M26.1902 29.1975C26.9988 28.7093 27.8319 28.198 28.6478 27.7446C28.8772 27.5789 29.0509 27.3244 29.1394 27.0241C29.4073 25.8968 29.653 24.7927 29.9946 23.6044C30.0707 23.3139 29.9946 23.1889 29.7488 23.3139C28.8272 23.8513 27.8859 24.4064 26.9791 24.9584C26.7139 25.1226 26.5136 25.4032 26.4212 25.7399C26.2 26.8237 26.0624 27.8755 25.9051 28.936C25.8732 29.1771 25.9813 29.2934 26.2025 29.1859L26.1902 29.1975Z" fill="#F77A5A"/>
<path fill-rule="evenodd" clip-rule="evenodd" d="M18.8686 33.5294C19.6453 33.1052 20.4489 32.6577 21.2107 32.2132C21.3093 32.1606 21.3938 32.0769 21.4549 31.9713C21.5161 31.8658 21.5515 31.7424 21.5572 31.6146C21.556 30.618 21.6086 29.6223 21.7145 28.6337C21.744 28.3953 21.6187 28.2501 21.4147 28.3838C20.5201 28.9068 19.6648 29.4384 18.7925 29.9412C18.681 30.0086 18.5837 30.1048 18.5076 30.2224C18.4315 30.3399 18.3785 30.4762 18.3525 30.621C18.3176 31.5368 18.3587 32.4546 18.4754 33.3609C18.4901 33.5584 18.6868 33.6514 18.8686 33.5294Z" fill="#F77A5A"/>
<path fill-rule="evenodd" clip-rule="evenodd" d="M15.0451 35.3597C15.9004 34.9994 16.7367 34.612 17.5544 34.1975C17.6503 34.1582 17.732 34.0816 17.7865 33.9804C17.8409 33.8791 17.8648 33.759 17.8542 33.6396C17.7439 32.7557 17.6937 31.8628 17.7042 30.9696C17.7042 30.7022 17.5838 30.6064 17.3626 30.7139C16.4926 31.2165 15.603 31.693 14.701 32.091C14.5905 32.1415 14.4919 32.223 14.4137 32.3282C14.3354 32.4333 14.2797 32.5593 14.2513 32.6953C14.2686 33.5353 14.3768 34.3691 14.5732 35.1767C14.5925 35.2269 14.6204 35.272 14.6551 35.3089C14.6899 35.3457 14.7308 35.3737 14.7751 35.3909C14.8195 35.4082 14.8664 35.4142 14.9129 35.4089C14.9594 35.4035 15.0044 35.3868 15.0451 35.3597Z" fill="#F77A5A"/>
<path fill-rule="evenodd" clip-rule="evenodd" d="M22.7764 35.6037C23.467 35.2172 24.1428 34.7988 24.8162 34.3834C24.9028 34.325 24.9746 34.2404 25.0242 34.1382C25.0739 34.036 25.0997 33.9201 25.0988 33.8022C25.0692 32.8267 25.0856 31.85 25.148 30.8764C25.1542 30.829 25.1483 30.7804 25.131 30.737C25.1138 30.6935 25.0859 30.6572 25.0511 30.6325C25.0163 30.6078 24.976 30.596 24.9355 30.5987C24.8949 30.6012 24.856 30.6181 24.8236 30.6469C24.0395 31.1147 23.2703 31.6144 22.4864 32.0822C22.392 32.1391 22.3132 32.2262 22.2589 32.3336C22.2045 32.4409 22.1769 32.5644 22.1792 32.6895C22.2123 33.5984 22.2943 34.5038 22.4249 35.4003C22.428 35.4462 22.4411 35.4905 22.4628 35.5289C22.4845 35.5671 22.5141 35.5983 22.5488 35.6193C22.5835 35.6402 22.6222 35.6503 22.6612 35.6485C22.7002 35.6469 22.7381 35.6335 22.7715 35.6095L22.7764 35.6037Z" fill="#F77A5A"/>
<path fill-rule="evenodd" clip-rule="evenodd" d="M19.5795 37.2804C20.3168 36.9462 20.9976 36.557 21.6832 36.217C21.7641 36.1714 21.8293 36.0941 21.8678 35.9984C21.9063 35.9027 21.9158 35.7941 21.8946 35.691C21.746 34.8088 21.6476 33.9158 21.5997 33.0181C21.5825 32.8205 21.435 32.6956 21.231 32.8291C20.452 33.2534 19.6901 33.7009 18.9159 34.0756C18.8253 34.123 18.7489 34.2016 18.6968 34.3011C18.6446 34.4007 18.619 34.5165 18.6235 34.6335C18.7691 35.4615 18.9538 36.2791 19.1765 37.0829C19.1899 37.13 19.2117 37.1732 19.2406 37.2094C19.2693 37.2456 19.3044 37.2741 19.3434 37.2928C19.3823 37.3116 19.4243 37.3202 19.4663 37.318C19.5083 37.3159 19.5494 37.3031 19.5869 37.2804H19.5795Z" fill="#F77A5A"/>
<path fill-rule="evenodd" clip-rule="evenodd" d="M26.4044 37.8033C26.9869 37.4662 27.5669 37.1322 28.1738 36.7748C28.2538 36.7205 28.3192 36.6408 28.3627 36.5447C28.4061 36.4487 28.4258 36.3401 28.4197 36.2314C28.3975 35.2726 28.4 34.2934 28.3778 33.326C28.3846 33.2814 28.3806 33.2355 28.3661 33.1936C28.3518 33.1517 28.3274 33.1155 28.2963 33.0893C28.2651 33.0631 28.2282 33.048 28.19 33.0456C28.1518 33.0433 28.1138 33.0538 28.0805 33.0761C27.3654 33.4858 26.6894 33.9042 25.9965 34.2905C25.9135 34.3504 25.8465 34.4367 25.8031 34.5395C25.7596 34.6422 25.7414 34.7573 25.7506 34.8716C25.8637 35.7433 25.9718 36.6759 26.0874 37.5535C26.0902 37.5968 26.1018 37.6387 26.1211 37.6757C26.1404 37.7126 26.1668 37.7437 26.1984 37.7661C26.2299 37.7885 26.2654 37.8018 26.3021 37.8047C26.3388 37.8076 26.3755 37.8001 26.4093 37.7829L26.4044 37.8033Z" fill="#F77A5A"/>
<path fill-rule="evenodd" clip-rule="evenodd" d="M1.39569 28.9937C2.16246 28.6703 2.91284 28.3226 3.64685 27.9506C3.73281 27.9153 3.80621 27.8468 3.85524 27.7561C3.90428 27.6655 3.9261 27.558 3.91718 27.4509C3.81618 26.6586 3.77016 25.8579 3.77955 25.0568C3.79185 24.8156 3.67389 24.7285 3.47481 24.8243C2.6933 25.2776 1.89458 25.6959 1.08603 26.062C0.986819 26.1076 0.89837 26.1808 0.8282 26.2754C0.75803 26.37 0.708214 26.4832 0.682983 26.6054C0.699429 27.3576 0.796038 28.1045 0.970522 28.8281C0.987665 28.8737 1.01268 28.9144 1.04394 28.9479C1.07521 28.9813 1.11205 29.0066 1.15209 29.0222C1.19213 29.0378 1.23448 29.0433 1.27644 29.0384C1.31839 29.0335 1.35901 29.0183 1.39569 28.9937Z" fill="#F77A5A"/>
<path fill-rule="evenodd" clip-rule="evenodd" d="M8.33093 29.2146C8.95026 28.866 9.55974 28.4912 10.1619 28.1163C10.2391 28.0638 10.3027 27.9873 10.346 27.8951C10.3893 27.803 10.4106 27.6987 10.4076 27.5935C10.3807 26.7215 10.3946 25.8486 10.4494 24.9785C10.455 24.9363 10.4498 24.8933 10.4346 24.8547C10.4194 24.816 10.3949 24.7836 10.3641 24.7615C10.3332 24.7394 10.2976 24.7287 10.2616 24.7306C10.2256 24.7325 10.1909 24.7469 10.1619 24.7722C9.45652 25.1935 8.76839 25.6438 8.06306 26.0622C7.97764 26.1116 7.90618 26.1892 7.85732 26.2856C7.80847 26.3821 7.78432 26.4932 7.78781 26.6056C7.81847 27.4211 7.89399 28.2335 8.01391 29.0375C8.01638 29.0787 8.02779 29.1185 8.04705 29.1531C8.06631 29.1876 8.09276 29.2158 8.12386 29.2347C8.15496 29.2536 8.18967 29.2629 8.22464 29.2613C8.25961 29.26 8.29368 29.2478 8.32356 29.2263L8.33093 29.2146Z" fill="#F77A5A"/>
<path fill-rule="evenodd" clip-rule="evenodd" d="M5.46292 30.7168C6.11418 30.4263 6.73349 30.0689 7.35035 29.761C7.4232 29.7207 7.48191 29.6517 7.51644 29.5657C7.55096 29.4798 7.55915 29.3825 7.53959 29.2903C7.40723 28.4989 7.31857 27.6982 7.27417 26.8932C7.25942 26.716 7.12672 26.6026 6.94485 26.7247C6.24443 27.1024 5.56122 27.5063 4.86817 27.8434C4.78608 27.8849 4.71654 27.9549 4.66872 28.0441C4.6209 28.1334 4.59705 28.2376 4.6003 28.3431C4.72837 29.0858 4.89248 29.8192 5.09182 30.5396C5.10357 30.5822 5.12303 30.6212 5.14886 30.654C5.17469 30.6868 5.20625 30.7125 5.24135 30.7293C5.27644 30.7463 5.31423 30.7539 5.35208 30.7517C5.38992 30.7496 5.4269 30.7377 5.46046 30.7168H5.46292Z" fill="#F77A5A"/>
<path fill-rule="evenodd" clip-rule="evenodd" d="M8.99235 39.3199C9.64772 39.0429 10.2867 38.7466 10.9093 38.4308C10.9828 38.401 11.0455 38.3424 11.0871 38.2648C11.1286 38.1871 11.1465 38.0951 11.1378 38.0037C11.0534 37.3305 11.0148 36.6503 11.0223 35.9699C11.0223 35.7664 10.9314 35.6793 10.7766 35.7723C10.1081 36.1588 9.42981 36.5219 8.74168 36.827C8.65666 36.8647 8.58079 36.9265 8.52078 37.0071C8.46077 37.0877 8.41847 37.1845 8.39761 37.2889C8.41117 37.9302 8.49376 38.5668 8.64337 39.1834C8.65796 39.222 8.67919 39.2567 8.70572 39.2852C8.73225 39.3135 8.7635 39.3352 8.79748 39.3486C8.83147 39.362 8.86744 39.3669 8.90311 39.3629C8.93877 39.359 8.97335 39.3463 9.00464 39.3257L8.99235 39.3199Z" fill="#F77A5A"/>
<path fill-rule="evenodd" clip-rule="evenodd" d="M14.898 39.5146C15.4265 39.2241 15.9425 38.8986 16.4586 38.5819C16.5254 38.5374 16.5809 38.4723 16.619 38.3935C16.657 38.3147 16.6764 38.2252 16.675 38.1345C16.6508 37.3885 16.6632 36.6415 16.7118 35.8973C16.7158 35.8615 16.711 35.8251 16.6979 35.7926C16.6847 35.7601 16.6638 35.7327 16.6378 35.714C16.6117 35.6951 16.5817 35.6857 16.5512 35.6869C16.5206 35.6879 16.4911 35.6994 16.466 35.72C15.8664 36.0803 15.279 36.461 14.6793 36.8183C14.6072 36.8618 14.5469 36.9285 14.5056 37.0108C14.4643 37.0931 14.4435 37.1876 14.4458 37.2832C14.4717 37.9779 14.5357 38.6699 14.6376 39.3548C14.6401 39.3896 14.65 39.4232 14.6665 39.4521C14.6829 39.4811 14.7054 39.5047 14.7317 39.5207C14.7579 39.5367 14.7872 39.5445 14.8167 39.5435C14.8463 39.5423 14.8751 39.5324 14.9005 39.5146H14.898Z" fill="#F77A5A"/>
<path fill-rule="evenodd" clip-rule="evenodd" d="M12.4548 40.7845C13.0103 40.5317 13.5386 40.2325 14.0621 39.9739C14.1243 39.9395 14.1744 39.8808 14.2044 39.8078C14.2344 39.7348 14.2423 39.6519 14.2268 39.5729C14.1126 38.9017 14.0363 38.2223 13.9982 37.5391C13.9982 37.3881 13.8729 37.2921 13.7181 37.3938C13.1209 37.7163 12.5409 38.0621 11.9485 38.3468C11.8785 38.3825 11.8192 38.4423 11.7784 38.5185C11.7376 38.5947 11.7173 38.6838 11.72 38.7739C11.8307 39.4066 11.9718 40.0314 12.1427 40.6451C12.153 40.6809 12.1696 40.7136 12.1916 40.741C12.2135 40.7685 12.2402 40.79 12.27 40.8041C12.2996 40.8183 12.3315 40.8246 12.3634 40.8227C12.3954 40.8208 12.4265 40.8107 12.4548 40.7932V40.7845Z" fill="#F77A5A"/>
<path fill-rule="evenodd" clip-rule="evenodd" d="M11.5844 31.1847C12.1078 30.8941 12.6288 30.5832 13.172 30.2636C13.2415 30.2129 13.298 30.1405 13.3353 30.0545C13.3725 29.9684 13.3892 29.8719 13.3833 29.7755C13.3637 28.9038 13.366 28.0322 13.3465 27.178C13.3533 27.1378 13.35 27.096 13.3372 27.0579C13.3243 27.0198 13.3024 26.9868 13.274 26.9632C13.2456 26.9395 13.2121 26.926 13.1774 26.9244C13.1427 26.9229 13.1084 26.9333 13.0786 26.9543C12.4371 27.3204 11.8325 27.6952 11.2108 28.0438C11.137 28.0999 11.0784 28.1798 11.0418 28.2741C11.0053 28.3683 10.9922 28.4729 11.0043 28.5756C11.1051 29.363 11.2034 30.191 11.3066 30.9784C11.309 31.0172 11.3192 31.0548 11.3364 31.088C11.3536 31.1211 11.3773 31.149 11.4054 31.1691C11.4335 31.1894 11.4653 31.2013 11.4982 31.2039C11.531 31.2066 11.5639 31.2 11.5941 31.1847H11.5844Z" fill="#F77A5A"/>
<path fill-rule="evenodd" clip-rule="evenodd" d="M5.90226 21.9796C6.49372 21.7298 7.07534 21.4606 7.64715 21.172C7.71368 21.1438 7.77038 21.0903 7.80823 21.0197C7.84607 20.9492 7.8629 20.8658 7.85604 20.7826C7.7772 20.1683 7.74185 19.5473 7.75037 18.926C7.75037 18.7401 7.66681 18.6732 7.50461 18.7459C6.89758 19.0975 6.27581 19.4286 5.65158 19.7076C5.57702 19.744 5.51091 19.801 5.45875 19.8738C5.40659 19.9465 5.36991 20.033 5.35175 20.126C5.36445 20.7101 5.4396 21.29 5.57539 21.8518C5.60485 21.9202 5.65603 21.9721 5.71774 21.9961C5.77945 22.02 5.84667 22.0142 5.90471 21.9796H5.90226Z" fill="#F77A5A"/>
<path fill-rule="evenodd" clip-rule="evenodd" d="M11.2776 22.1515C11.7691 21.8784 12.2287 21.5908 12.6981 21.3002C12.7593 21.2603 12.81 21.2011 12.8447 21.1295C12.8794 21.0577 12.8967 20.976 12.8948 20.8934C12.8748 20.2153 12.8863 19.5363 12.9291 18.8596C12.9332 18.8266 12.929 18.793 12.9169 18.7628C12.9048 18.7327 12.8855 18.7075 12.8612 18.6904C12.837 18.6733 12.8091 18.6651 12.7809 18.6667C12.7528 18.6684 12.7257 18.6799 12.7031 18.6998C12.1574 19.0281 11.6241 19.3738 11.0761 19.6993C11.0108 19.7388 10.9563 19.7993 10.9189 19.8738C10.8815 19.9484 10.8627 20.034 10.8647 20.1206C10.8875 20.754 10.9458 21.3849 11.0392 22.0092C11.0412 22.0418 11.0504 22.0734 11.0658 22.1006C11.0812 22.1278 11.1023 22.1499 11.1271 22.1646C11.1519 22.1791 11.1795 22.186 11.2072 22.1842C11.2349 22.1824 11.2617 22.1722 11.285 22.1544L11.2776 22.1515Z" fill="#F77A5A"/>
<path fill-rule="evenodd" clip-rule="evenodd" d="M9.05561 23.3137C9.54714 23.0812 10.0387 22.8109 10.5302 22.5757C10.5868 22.5443 10.6324 22.4906 10.6593 22.4238C10.6862 22.3571 10.6927 22.2814 10.6776 22.2096C10.5755 21.5955 10.5066 20.9744 10.4712 20.3501C10.4712 20.2135 10.3581 20.1263 10.2254 20.2193C9.6823 20.5099 9.15392 20.8266 8.6157 21.091C8.55204 21.1231 8.49806 21.1771 8.4608 21.246C8.42353 21.315 8.40471 21.3956 8.4068 21.4774C8.50777 22.0532 8.63659 22.6216 8.79264 23.18C8.80142 23.2131 8.81631 23.2436 8.83623 23.2692C8.85616 23.2948 8.88063 23.3148 8.9079 23.3279C8.93515 23.341 8.96453 23.3467 8.99389 23.3447C9.02325 23.3428 9.05189 23.3332 9.07773 23.3166L9.05561 23.3137Z" fill="#F77A5A"/>
<path fill-rule="evenodd" clip-rule="evenodd" d="M13.8018 23.6765C14.2073 23.4441 14.6128 23.2116 15.0306 22.9647C15.0848 22.925 15.1288 22.8687 15.1579 22.8016C15.1869 22.7345 15.1999 22.6592 15.1952 22.584C15.183 21.9187 15.183 21.2388 15.1682 20.5706C15.1731 20.5397 15.1704 20.5076 15.1603 20.4785C15.1504 20.4494 15.1336 20.424 15.1119 20.4058C15.0902 20.3876 15.0646 20.3769 15.038 20.3752C15.0114 20.3735 14.9851 20.3809 14.9618 20.3962C14.4702 20.6868 13.9935 20.9773 13.5118 21.2417C13.4536 21.2844 13.4069 21.3459 13.3772 21.4191C13.3476 21.4922 13.3363 21.5739 13.3447 21.6543C13.4234 22.2644 13.4995 22.9095 13.5782 23.5196C13.5803 23.5496 13.5885 23.5785 13.602 23.604C13.6155 23.6295 13.634 23.6508 13.6558 23.6661C13.6777 23.6814 13.7023 23.6904 13.7277 23.6922C13.7531 23.6941 13.7785 23.6886 13.8018 23.6765Z" fill="#F77A5A"/>
<path fill-rule="evenodd" clip-rule="evenodd" d="M23.7231 39.3258C24.2835 39.009 24.8635 38.6749 25.4434 38.3379C25.5161 38.2888 25.5736 38.2135 25.6077 38.1231C25.6418 38.0327 25.6505 37.9319 25.6327 37.8352C25.5171 36.9635 25.3623 36.0715 25.2321 35.168C25.2293 35.1243 25.2169 35.0823 25.1958 35.0462C25.1748 35.0102 25.1462 34.9814 25.1127 34.9628C25.0791 34.9441 25.0421 34.9364 25.0052 34.9402C24.9682 34.9441 24.933 34.9596 24.9027 34.9849C24.2343 35.3539 23.5585 35.7723 22.89 36.1471C22.8093 36.1922 22.7442 36.269 22.7057 36.3642C22.6672 36.4594 22.6576 36.5674 22.6787 36.6701C22.9022 37.4953 23.1284 38.3175 23.3594 39.0933C23.3696 39.1372 23.3871 39.1782 23.4108 39.2141C23.4346 39.2499 23.4641 39.2798 23.4978 39.3019C23.5314 39.3241 23.5684 39.3382 23.6067 39.3432C23.6449 39.3483 23.6837 39.3444 23.7206 39.3316L23.7231 39.3258Z" fill="#F77A5A"/>
<path fill-rule="evenodd" clip-rule="evenodd" d="M20.9527 40.5869C21.5623 40.3544 22.1815 40.0726 22.7542 39.785C22.7896 39.7699 22.8221 39.7465 22.8495 39.7161C22.877 39.6856 22.8989 39.6488 22.914 39.6079C22.9289 39.5672 22.9367 39.5231 22.9366 39.4785C22.9366 39.4341 22.9289 39.39 22.9139 39.3491C22.6681 38.5473 22.4396 37.7221 22.2085 36.9464C22.1956 36.8993 22.1739 36.8561 22.1453 36.8199C22.1168 36.7836 22.0817 36.7553 22.0429 36.7368C22.004 36.7182 21.9622 36.71 21.9203 36.7125C21.8785 36.7151 21.8376 36.7284 21.8006 36.7516C21.1149 37.0916 20.4464 37.4606 19.7436 37.7744C19.7078 37.7932 19.6757 37.8201 19.6491 37.8539C19.6224 37.8878 19.6019 37.9275 19.5886 37.971C19.5753 38.0144 19.5694 38.0605 19.5716 38.1066C19.5738 38.1527 19.5838 38.1979 19.601 38.2393C19.9009 38.954 20.2007 39.6687 20.5423 40.3893C20.5786 40.4757 20.6402 40.5436 20.7159 40.5801C20.7914 40.6164 20.8757 40.6188 20.9527 40.5869Z" fill="#F77A5A"/>
<path fill-rule="evenodd" clip-rule="evenodd" d="M17.8416 41.5919C18.5788 41.4292 19.2572 41.2113 19.9084 40.9847C19.9451 40.9757 19.9793 40.956 20.008 40.9274C20.0365 40.8987 20.0586 40.862 20.072 40.8206C20.0855 40.7792 20.0899 40.7345 20.085 40.6906C20.08 40.6466 20.0657 40.605 20.0436 40.5692L19.0605 38.4569C19.0193 38.3699 18.9524 38.3038 18.8725 38.2716C18.7927 38.2395 18.7056 38.2434 18.628 38.2826C17.9079 38.5731 17.1534 38.8463 16.3719 39.0961C16.1556 39.1572 16.0917 39.3402 16.1777 39.4797C16.5464 40.1334 16.9421 40.7668 17.3353 41.4002C17.3994 41.4821 17.4805 41.5431 17.5705 41.5766C17.6607 41.6103 17.7566 41.6155 17.8489 41.5919H17.8416Z" fill="#F77A5A"/>
<path fill-rule="evenodd" clip-rule="evenodd" d="M25.2192 42.6526C25.6837 42.4201 26.2022 42.1935 26.6765 41.9379C26.7395 41.8878 26.7848 41.8124 26.8039 41.7256C26.8229 41.6389 26.8142 41.547 26.7798 41.4672C26.507 40.6827 26.2588 39.8807 25.9712 39.0701C25.9602 39.0268 25.9414 38.9868 25.9158 38.9531C25.8904 38.9193 25.8591 38.8925 25.8239 38.8745C25.7889 38.8565 25.7509 38.8478 25.7127 38.8489C25.6744 38.8502 25.6368 38.8612 25.6025 38.8812C25.0447 39.195 24.4451 39.503 23.8823 39.8197C23.8485 39.8392 23.819 39.8675 23.796 39.9026C23.773 39.9377 23.757 39.9786 23.7494 40.022C23.7418 40.0656 23.7427 40.1106 23.7521 40.1535C23.7615 40.1965 23.7791 40.2364 23.8036 40.2701C24.1207 41.0138 24.4868 41.7228 24.8285 42.4376C24.8654 42.5168 24.9226 42.5804 24.9919 42.6189C25.0612 42.6575 25.1391 42.6693 25.2143 42.6526H25.2192Z" fill="#F77A5A"/>
<path fill-rule="evenodd" clip-rule="evenodd" d="M19.9847 44.23C20.6408 44.1283 21.2774 43.9977 21.8746 43.861C22.0024 43.8349 22.0441 43.6722 21.9409 43.5066C21.4837 42.8848 21.0488 42.2427 20.5917 41.6209C20.5396 41.5416 20.4701 41.4808 20.3909 41.445C20.3115 41.4092 20.2254 41.3997 20.142 41.4175C19.4906 41.6442 18.8247 41.8417 18.0997 41.9986C17.9301 42.0161 17.8539 42.173 17.9744 42.3183C18.4658 42.9196 18.9574 43.4514 19.471 44.0325C19.5418 44.1028 19.6235 44.156 19.7117 44.1889C19.7998 44.2218 19.8926 44.2338 19.9847 44.2242V44.23Z" fill="#F77A5A"/>
<path fill-rule="evenodd" clip-rule="evenodd" d="M29.0729 44.8665C29.4907 44.6719 29.8913 44.451 30.3017 44.2593C30.3542 44.2076 30.3886 44.135 30.3987 44.055C30.4086 43.9751 30.3934 43.8938 30.3558 43.8264C30.0437 43.036 29.7315 42.2459 29.4612 41.4643C29.3826 41.2783 29.2326 41.1534 29.0975 41.226C28.633 41.4614 28.1391 41.7635 27.65 42.0163C27.5394 42.0715 27.4975 42.2342 27.5959 42.4492C27.9768 43.1785 28.3602 43.902 28.7239 44.6108C28.7529 44.6882 28.8006 44.7537 28.8609 44.7991C28.9213 44.8446 28.9915 44.868 29.0631 44.8665H29.0729Z" fill="#F77A5A"/>
<path fill-rule="evenodd" clip-rule="evenodd" d="M24.9295 46.3455C25.4383 46.2409 25.8905 46.1042 26.3427 45.9648C26.4704 45.9386 26.4729 45.7673 26.3427 45.622C25.8831 45.0003 25.431 44.3319 25.0205 43.6724C24.9752 43.5908 24.9111 43.5261 24.8358 43.486C24.7605 43.4459 24.6771 43.4319 24.5954 43.4457C24.1038 43.6549 23.5951 43.8061 23.0569 43.9775C22.9217 44.0501 22.9045 44.1954 23.0078 44.361C23.4694 44.9965 23.9617 45.5999 24.4823 46.1682C24.5408 46.2302 24.6092 46.2777 24.6835 46.3083C24.7578 46.3386 24.8364 46.3513 24.9148 46.3455H24.9295Z" fill="#F77A5A"/>
<path fill-rule="evenodd" clip-rule="evenodd" d="M31.1199 47.9403C31.4909 47.7863 31.8571 47.6323 32.1939 47.4725C32.2823 47.4406 32.2602 47.2895 32.157 47.1239L30.8545 45.029C30.734 44.8344 30.6086 44.689 30.498 44.7385C30.1116 44.958 29.7135 45.1472 29.3061 45.3051C29.1955 45.3603 29.171 45.552 29.2742 45.7147C29.7436 46.412 30.2425 47.0396 30.734 47.7165C30.8593 47.8619 31.0338 47.9665 31.1199 47.9345V47.9403Z" fill="#F77A5A"/>
<path fill-rule="evenodd" clip-rule="evenodd" d="M29.3436 48.536C29.7515 48.4402 30.1227 48.2862 30.511 48.1612C30.597 48.1264 30.5749 47.9753 30.4742 47.8097C29.9826 47.1821 29.4591 46.5254 28.9995 45.8571C28.8742 45.7119 28.7243 45.5869 28.6383 45.6218C28.218 45.8136 27.8076 45.9617 27.3727 46.1273C27.2621 46.1796 27.2841 46.3307 27.3849 46.4964C27.8445 47.1181 28.4048 47.7341 28.9283 48.3414C28.9802 48.407 29.0435 48.4584 29.114 48.4921C29.1845 48.5256 29.2604 48.5407 29.3363 48.536H29.3436Z" fill="#F77A5A"/>
<path fill-rule="evenodd" clip-rule="evenodd" d="M27.3253 48.9311C27.7897 48.8673 28.237 48.7771 28.6597 48.7075C28.7629 48.7075 28.7409 48.5506 28.6154 48.4168C28.0699 47.8357 27.5481 47.2276 27.05 46.5922C27.0034 46.5245 26.9446 46.4699 26.8778 46.4326C26.811 46.3954 26.738 46.3765 26.6642 46.3773C26.2119 46.5138 25.7425 46.6271 25.2731 46.7376C25.1453 46.7637 25.1503 46.8857 25.2731 47.0281C25.7769 47.6092 26.3053 48.1699 26.873 48.7365C27.0044 48.8516 27.16 48.922 27.3228 48.9398L27.3253 48.9311Z" fill="#F77A5A"/>
<path fill-rule="evenodd" clip-rule="evenodd" d="M24.9689 49.0678C25.5095 49.0678 26.0477 49.0678 26.5516 49.0125C26.6719 49.0329 26.6671 48.9109 26.4999 48.7569C25.9494 48.2193 25.4211 47.6586 24.8927 47.0979C24.7652 46.9575 24.5997 46.8752 24.4257 46.8654C23.8646 46.9678 23.2978 47.0212 22.73 47.0252C22.6022 47.0514 22.5899 47.1472 22.7153 47.2925C23.3124 47.7923 23.8704 48.2833 24.4356 48.8033C24.5928 48.9331 24.771 49.0232 24.959 49.0678H24.9689Z" fill="#F77A5A"/>
<path fill-rule="evenodd" clip-rule="evenodd" d="M33.5511 50.7411C33.8859 50.6593 34.2147 50.5456 34.534 50.4011C34.598 50.4011 34.5537 50.2588 34.4087 50.0873C33.8347 49.4972 33.3089 48.8446 32.8383 48.1378C32.713 47.9926 32.5631 47.8676 32.4943 47.9286C32.1453 48.0622 31.7963 48.1959 31.4252 48.347C31.3393 48.3818 31.3613 48.5329 31.4866 48.6782C31.9943 49.356 32.551 49.9802 33.1504 50.5436C33.3004 50.6684 33.4724 50.773 33.5584 50.7411H33.5511Z" fill="#F77A5A"/>
<path fill-rule="evenodd" clip-rule="evenodd" d="M31.8948 51.1538C32.2363 51.0667 32.632 51.0173 33.0032 50.9127C33.0671 50.9127 33.0204 50.7675 32.8532 50.6222C32.2668 50.059 31.7172 49.4442 31.2091 48.783C31.1638 48.7198 31.1067 48.6699 31.0423 48.6371C30.9779 48.6044 30.908 48.5896 30.838 48.5942C30.4497 48.7191 30.0442 48.8178 29.678 48.9224C29.5674 48.9776 29.6141 49.1084 29.7222 49.213C30.2685 49.8306 30.8428 50.4126 31.4426 50.9563C31.5699 51.0797 31.7278 51.1512 31.8923 51.1596L31.8948 51.1538Z" fill="#F77A5A"/>
<path fill-rule="evenodd" clip-rule="evenodd" d="M29.975 51.3428C30.3963 51.3435 30.8171 51.3046 31.2332 51.2266C31.3365 51.2266 31.2849 51.1394 31.1177 50.9854C30.5279 50.4392 29.9996 49.8784 29.4539 49.2916C29.3041 49.1666 29.1148 49.033 29.0042 49.0882C28.5815 49.1578 28.1588 49.2276 27.6943 49.2916C27.5911 49.2916 27.6181 49.3991 27.7435 49.5443C28.3431 50.044 28.9329 50.5932 29.508 51.1133C29.6483 51.2276 29.8074 51.3059 29.975 51.3428Z" fill="#F77A5A"/>
<path fill-rule="evenodd" clip-rule="evenodd" d="M27.7535 51.2351C28.2868 51.2816 28.7782 51.3223 29.2526 51.3339C29.3558 51.3339 29.3042 51.2468 29.1789 51.1014C28.5817 50.6017 27.9893 50.0554 27.3921 49.5557C27.2608 49.4406 27.1052 49.3703 26.9424 49.3524C26.4214 49.3786 25.9004 49.4076 25.345 49.3814C25.2 49.3814 25.2098 49.454 25.3598 49.579C26.0037 50.0381 26.6254 50.5175 27.2472 50.9968C27.401 51.1148 27.5731 51.1959 27.7535 51.2351Z" fill="#F77A5A"/>
<path fill-rule="evenodd" clip-rule="evenodd" d="M36.2959 53.3651C36.6083 53.3061 36.917 53.2226 37.22 53.1152C37.2839 53.1152 37.1905 53.0135 37.0234 52.8596C36.4163 52.2784 35.8536 51.6712 35.2736 51.0262C35.1483 50.8809 34.9738 50.7763 34.8877 50.8113C34.577 50.9416 34.2593 51.0473 33.9367 51.1279C33.8309 51.1279 33.917 51.2703 34.0448 51.4185C34.6518 51.9996 35.2392 52.5807 35.8461 53.1617C35.9852 53.2593 36.1373 53.3281 36.2959 53.3651Z" fill="#F77A5A"/>
<path fill-rule="evenodd" clip-rule="evenodd" d="M34.6982 53.5656C35.0572 53.5481 35.4149 53.5064 35.7697 53.4408C35.8509 53.4408 35.7697 53.3449 35.6149 53.1938C35.0005 52.665 34.3861 52.0316 33.8061 51.497C33.6834 51.3779 33.5356 51.3005 33.3785 51.2732C33.0369 51.3575 32.6535 51.4359 32.2947 51.494C32.2087 51.5261 32.2357 51.6278 32.3856 51.7526C33.0172 52.3077 33.6316 52.8363 34.2878 53.371C34.4205 53.4668 34.6098 53.6006 34.6982 53.5656Z" fill="#F77A5A"/>
<path fill-rule="evenodd" clip-rule="evenodd" d="M30.6779 53.2804C31.1867 53.3472 31.688 53.4633 32.1524 53.4954C32.2729 53.5186 32.2213 53.4343 32.0738 53.3094C31.4102 52.8242 30.7663 52.3652 30.1274 51.8566C29.9729 51.7592 29.8074 51.6887 29.6358 51.6474C29.1426 51.6463 28.6501 51.6065 28.1613 51.5284C28.0384 51.5051 28.0679 51.6068 28.2007 51.7056C28.8199 52.185 29.4885 52.6238 30.1668 53.0624C30.3349 53.1623 30.5133 53.2355 30.6976 53.2804H30.6779Z" fill="#F77A5A"/>
<path fill-rule="evenodd" clip-rule="evenodd" d="M39.513 55.6602C39.8023 55.6434 40.0903 55.6055 40.3756 55.5469C40.4395 55.5323 40.3756 55.4219 40.1815 55.2912C39.4836 54.7478 38.788 54.2075 38.1097 53.6931C37.9746 53.5865 37.8208 53.517 37.66 53.4897C37.365 53.5334 37.0628 53.6264 36.7433 53.6902C36.6794 53.7048 36.7433 53.8152 36.9228 53.9198C37.6403 54.4399 38.3359 54.9833 39.0632 55.4569C39.1903 55.5811 39.3483 55.6525 39.513 55.6602Z" fill="#F77A5A"/>
<path fill-rule="evenodd" clip-rule="evenodd" d="M35.9666 55.6052C36.4163 55.6371 36.8439 55.6923 37.2568 55.7156C37.3354 55.7302 37.2863 55.6488 37.1118 55.5442C36.4113 55.0503 35.701 54.6028 34.9761 54.1292C34.8249 54.0233 34.6581 53.9523 34.4846 53.92C34.0914 53.92 33.7202 53.9027 33.2558 53.8706C33.1575 53.83 33.1869 53.9316 33.359 54.0362C34.0028 54.4953 34.7131 54.9428 35.4209 55.3873C35.5898 55.4851 35.768 55.5582 35.9518 55.6052H35.9666Z" fill="#F77A5A"/>
<path fill-rule="evenodd" clip-rule="evenodd" d="M33.7347 55.2506L35.2313 55.5208C35.3345 55.5208 35.283 55.4337 35.111 55.3291C34.3957 54.931 33.688 54.4836 33.0441 54.0275C32.9074 53.9048 32.7468 53.8249 32.5772 53.795C32.1078 53.7339 31.5941 53.6672 31.1025 53.5799C30.9797 53.5568 30.9919 53.6322 31.1641 53.7368C31.8325 54.1756 32.501 54.6086 33.1497 55.027C33.3317 55.1303 33.5241 55.2055 33.7224 55.2506H33.7347Z" fill="#F77A5A"/>
</svg>
