<svg width="141" height="38" viewBox="0 0 141 38" fill="none" xmlns="http://www.w3.org/2000/svg">
<path d="M55.9201 11C51.6646 11 49 13.8835 49 18.505C49 23.1165 51.6646 26 55.9201 26C60.1657 26 62.8403 23.1165 62.8403 18.505C62.8403 13.8835 60.1657 11 55.9201 11ZM55.9201 13.5318C58.2666 13.5318 59.768 15.4608 59.768 18.505C59.768 21.5392 58.2666 23.4581 55.9201 23.4581C53.5637 23.4581 52.0624 21.5392 52.0624 18.505C52.0624 15.4608 53.5737 13.5318 55.9201 13.5318Z" fill="#F77A5A"/>
<path d="M74.3738 14.9786H71.4706V21.1474C71.4706 22.574 70.6652 23.5084 69.3726 23.5084C68.09 23.5084 67.3841 22.7448 67.3841 21.3081V14.9786H64.4808V21.921C64.4808 24.4327 66.012 25.9498 68.3187 25.9498C69.9294 25.9498 70.9834 25.1661 71.5103 23.8098H71.57V25.7488H74.3738V14.9786Z" fill="#F77A5A"/>
<path d="M77.0385 12.497V14.9786H75.5371V17.1889H77.0385V22.8453C77.0385 24.9451 78.0129 25.789 80.5184 25.789C81.105 25.789 81.6022 25.7388 81.9005 25.6685V23.5084C81.7215 23.5385 81.453 23.5586 81.1945 23.5586C80.3395 23.5586 79.9417 23.1668 79.9417 22.3429V17.1889H81.9104V14.9786H79.9417V12.497H77.0385Z" fill="#F77A5A"/>
<path d="M89.8348 25.9196C92.5193 25.9196 94.1598 23.8299 94.1598 20.3637C94.1598 16.8875 92.5093 14.8078 89.8248 14.8078C88.3036 14.8078 87.1204 15.5713 86.5338 16.8473H86.4741V11.2512H83.5708V25.7488H86.4343V23.9002H86.494C87.0806 25.1561 88.2737 25.9196 89.8348 25.9196ZM88.8305 17.1587C90.2722 17.1587 91.187 18.4046 91.187 20.3637C91.187 22.3329 90.2822 23.5586 88.8305 23.5586C87.4187 23.5586 86.4642 22.3128 86.4642 20.3637C86.4642 18.4347 87.4286 17.1587 88.8305 17.1587Z" fill="#F77A5A"/>
<path d="M100.563 25.9799C103.784 25.9799 105.843 23.9002 105.843 20.3537C105.843 16.8573 103.755 14.7475 100.563 14.7475C97.3713 14.7475 95.2834 16.8674 95.2834 20.3537C95.2834 23.8902 97.3415 25.9799 100.563 25.9799ZM100.563 23.7395C99.1312 23.7395 98.2264 22.5238 98.2264 20.3637C98.2264 18.2237 99.1511 16.9879 100.563 16.9879C101.975 16.9879 102.89 18.2237 102.89 20.3637C102.89 22.5238 101.985 23.7395 100.563 23.7395Z" fill="#F77A5A"/>
<path d="M117.187 14.9786H114.284V21.1474C114.284 22.574 113.479 23.5084 112.186 23.5084C110.903 23.5084 110.197 22.7448 110.197 21.3081V14.9786H107.294V21.921C107.294 24.4327 108.825 25.9498 111.132 25.9498C112.743 25.9498 113.797 25.1661 114.324 23.8098H114.383V25.7488H117.187V14.9786Z" fill="#F77A5A"/>
<path d="M119.076 25.7488H121.98V19.57C121.98 18.1735 122.805 17.209 124.107 17.209C125.41 17.209 126.066 18.0127 126.066 19.4193V25.7488H128.969V18.8064C128.969 16.2847 127.637 14.7776 125.271 14.7776C123.63 14.7776 122.507 15.5613 121.94 16.8975H121.88V14.9786H119.076V25.7488Z" fill="#F77A5A"/>
<path d="M134.766 25.9196C136.337 25.9196 137.57 25.0857 138.087 23.9002H138.136V25.7488H141V11.2512H138.097V16.8272H138.037C137.52 15.6316 136.327 14.8078 134.786 14.8078C132.111 14.8078 130.421 16.9277 130.421 20.3436C130.421 23.7897 132.101 25.9196 134.766 25.9196ZM135.75 17.1587C137.192 17.1587 138.117 18.4046 138.117 20.3637C138.117 22.3329 137.192 23.5586 135.75 23.5586C134.289 23.5586 133.394 22.3429 133.394 20.3637C133.394 18.3945 134.289 17.1587 135.75 17.1587Z" fill="#F77A5A"/>
<circle cx="19" cy="19" r="19" fill="#EF4E40"/>
<circle cx="19" cy="19" r="16.0769" fill="#F77A5A"/>
<circle cx="19" cy="19" r="13.5192" fill="#EF4E40"/>
<circle cx="19" cy="19" r="10.9615" fill="#F77A5A"/>
<circle cx="19" cy="19" r="8.40385" fill="#EF4E40"/>
<circle cx="19" cy="19" r="5.48077" fill="#F77A5A"/>
<path d="M18.7937 16.5531C18.8713 16.3873 19.1287 16.3873 19.2062 16.5531C19.4023 16.9723 19.7193 17.5697 20.0748 17.9252C20.4303 18.2807 21.0277 18.5977 21.4469 18.7937C21.6127 18.8713 21.6127 19.1287 21.4469 19.2062C21.0277 19.4023 20.4303 19.7193 20.0748 20.0748C19.7193 20.4303 19.4023 21.0277 19.2062 21.4469C19.1287 21.6127 18.8713 21.6127 18.7937 21.4469C18.5977 21.0277 18.2807 20.4303 17.9252 20.0748C17.5697 19.7193 16.9723 19.4023 16.5531 19.2062C16.3873 19.1287 16.3873 18.8713 16.5531 18.7937C16.9723 18.5977 17.5697 18.2807 17.9252 17.9252C18.2807 17.5697 18.5977 16.9723 18.7937 16.5531Z" fill="#FFF9EF"/>
</svg>
